<svg width="36" height="38" viewBox="0 0 36 38" fill="none" xmlns="http://www.w3.org/2000/svg">
<path d="M16.3333 23C21.3333 23 29.6666 29.6667 29.6666 29.6667V3C29.6666 3 21.3333 9.66667 16.3333 9.66667V23ZM6.33325 23L11.3333 36.3333H17.9999L12.9999 23H6.33325ZM29.6666 21.3333C30.3232 21.3333 30.9734 21.204 31.58 20.9527C32.1866 20.7015 32.7378 20.3332 33.2021 19.8689C33.6664 19.4046 34.0347 18.8534 34.286 18.2468C34.5373 17.6401 34.6666 16.9899 34.6666 16.3333C34.6666 15.6767 34.5373 15.0265 34.286 14.4199C34.0347 13.8133 33.6664 13.2621 33.2021 12.7978C32.7378 12.3335 32.1866 11.9652 31.58 11.7139C30.9734 11.4627 30.3232 11.3333 29.6666 11.3333V21.3333ZM16.3333 29.6667C17.9999 29.6667 21.3333 28 21.3333 24.6667L16.3333 29.6667ZM1.33325 16.3333C1.33325 11.1483 4.31825 9.66667 7.99992 9.66667H16.3333V23H7.99992C4.31825 23 1.33325 21.5183 1.33325 16.3333Z" stroke="#FF2156" stroke-width="2"/>
</svg>
